PathFileType	4	(X/Y/Z)	/home/abdul/Desktop/myosuite/custom_workspace/IK/output/S14_12_3.trc
DataRate	CameraRate	NumFrames	NumMarkers	Units	OrigDataRate	OrigDataStartFrame	OrigNumFrames
200.0	200.0	56	3	mm	200.0	532	2126
Frame#	Time	V_Shoulder			V_Elbow			V_Wrist		
		X1	Y1	Z1	X2	Y2	Z2	X3	Y3	Z3

532	2.655	-121.59483680441242	644.0328450154426	330.7054336394214	-151.4048280487812	445.3451023520734	52.73574298382934	-53.806446633068276	211.51360097249943	32.49521098457247
533	2.66	-121.52606436272879	643.8985258068557	330.68570627961554	-151.32226514215392	445.2134025164197	52.693581904134916	-53.67564771231778	211.362098628512	32.536629895605095
534	2.665	-121.46177696059063	643.765675745236	330.66373505899315	-151.24325330985113	445.0839391920702	52.64838598126973	-53.54921599001506	211.21237625519655	32.576823396964926
535	2.67	-121.40201052744612	643.6343593788921	330.63950398813955	-151.1679110024113	444.95688870160853	52.600075162964366	-53.42740296955118	211.0645870256938	32.6156555184985
536	2.675	-121.34679962383181	643.5046409767169	330.61299796728576	-151.09635274506476	444.8324249600369	52.548571601389284	-53.31045504211625	210.91888127064715	32.652993043336515
537	2.68	-121.29617742226714	643.3765844589583	330.58420282606517	-151.02868888511512	444.71071901257596	52.49379992323453	-53.198612768311364	210.77540608838297	32.68870611634375
538	2.685	-121.25017568751984	643.2502533269852	330.5531053620912	-150.9650253555077	444.5919385852145	52.43568748714783	-53.09211018422927	210.6343049724606	32.722668837052765
539	2.69	-121.20882475626443	643.125710592266	330.51969337823857	-150.90546345538985	444.47624764987063	52.37416462752533	-52.99117413474835	210.4957174582561	32.754759834575204
540	2.695	-121.17215351615981	643.0030187047919	330.48395571851376	-150.85009964836726	444.36380600595237	52.30916488372288	-52.896023636590336	210.35977879014013	32.784862822125966
541	2.7	-121.14018938437664	642.8822394811718	330.44588230240396	-150.79902537905915	444.25476888002083	52.24062521383233	-52.80686927348613	210.2266196107017	32.812867128946834
542	2.705	-121.11295828560918	642.7634340326391	330.40546415759997	-150.75232690845158	444.14928654517075	52.16848619224797	-52.723912625575856	210.09636567335212	32.838668207575914
543	2.71	-121.09048462961039	642.6466626932064	330.36269345099294	-150.71008516844108	444.0475039616429	52.09269219033083	-52.647345734943165	209.96913757952265	32.86216811457639
544	2.715	-121.07279128829286	642.5319849482097	330.31756351784935	-150.6723756358565	443.94956044008063	52.01319153956406	-52.57735060894925	209.84505054154445	32.883275963011044
545	2.72	-121.05989957244212	642.4194593634844	330.27006888907664	-150.6392682261396	443.8555893287295	51.929936676679525	-52.51409876279304	209.72421417216754	32.90190834512622
546	2.725	-121.05182920809204	642.3091435154121	330.2202053164961	-150.61082720675978	443.76571772576455	51.842884270324284	-52.457750802481094	209.6067323015451	32.91798972388976
547	2.73	-121.04859831261587	642.2010939220789	330.16796979604874	-150.58711113033465	443.68006621780637	51.75199532892529	-52.40845604914622	209.4927028223724	32.93145279220975
548	2.735	-121.05022337058915	642.0953659757806	330.11336058886326	-150.56817278732555	443.59874864556264	51.65723528950032	-52.36635220540994	209.3822175637336	32.942238798844095
549	2.74	-121.0567192094843	641.9920138771071	330.0563772401265	-150.55405917807826	443.521871897403	51.55857408725359	-52.33156506424185	209.2753621940719	32.950297840193286
550	2.745	-121.06809897525888	641.8910905708333	329.9970205957016	-150.54481150388315	443.44953573154197	51.45598620588375	-52.304208260530544	209.172216153559	32.955589117349476
551	2.75	-121.08437410790258	641.7926476838396	329.93529281644715	-150.5404651766368	443.3818326273707	51.34945070862136	-52.28438306534872	209.0728526160037	32.958081157952805
552	2.755	-121.10555431700955	641.6967354652721	329.8711973902008	-150.54104984659944	443.31884766634266	51.23895125010049	-52.27217822266933	208.9773384803014	32.95775200257988
553	2.76	-121.13164755744623	641.6034027291524	329.80473914139526	-150.54658944765944	443.2606584426816	51.124476069255536	-52.26766982807282	208.88573439129055	32.95458935555815
554	2.765	-121.1626600051848	641.5126967996306	329.7359242382876	-150.55710225943886	443.2073350040431	51.006017963518545	-52.270921248778876	208.79809478975005	32.94859070026365
555	2.77	-121.19859603337568	641.424663459071	329.6647601977861	-150.57260098550154	443.1589398221246	50.88357424467467	-52.28198308414031	208.71446799114	32.939763379116414
556	2.775	-121.2394581887325	641.3393468991443	329.59125588787145	-150.59309284686086	443.11552779308346	50.757146676812596	-52.30089316555332	208.63489629256145	32.92812463863734
557	2.78	-121.2852471683051	641.2567896750902	329.51542152761647	-150.61857968992334	443.0771462674906	50.6267413968838	-52.32767659456844	208.5594161072875	32.913701640072745
558	2.785	-121.3359617967164	641.1770326633042	329.43726868481536	-150.64905810795184	443.0438351094127	50.4923688184578	-52.36234581783046	208.48805812609749	32.896531436226525
559	2.79	-121.39159900393923	641.1001150223836	329.3568102712447	-150.68451957508663	443.0156267840914	50.35404351933059	-52.404900737334145	208.42084750453296	32.8766609152649
560	2.795	-121.45215380369098	641.0260741577613	329.27406053558417	-150.72495059192295	442.992546473561	50.21178411371004	-52.455328854356786	208.35780407508267	32.854146712375126
561	2.8	-121.51761927252177	640.9549456900337	329.18903505403597	-150.7703328416119	442.9746122194266	50.06561310976428	-52.51360544531788	208.29894258319996	32.8290550902664
562	2.805	-121.58798652967421	640.8867634270812	329.10175071868724	-150.820643355426	442.9618350919086	49.91555675337752	-52.579693767722006	208.2442729459574	32.80146178959903
563	2.81	-121.6632447177899	640.8215593400586	329.0122257236689	-150.87585468671347	442.9542193841479	49.76164485901205	-52.65354529426186	208.1938005320497	32.771451850516186
564	2.815	-121.74338098453946	640.759363543323	328.9204795491732	-150.9359350921534	442.9517628306623	49.60391062862464	-52.73509997309583	208.14752646177072	32.739119406531344
565	2.82	-121.82838046525062	640.7002042783454	328.82653294339724	-151.00084871922007	442.9544568487428	49.44239045963095	-52.824286512267264	208.1054479255073	32.70456745209415
566	2.825	-121.91822626660768	640.6441079016412	328.7304079024882	-151.0705557987676	442.96228680148795	49.27712374295166	-52.92102268620067	208.06755851922236	32.66790758521779
567	2.83	-122.01289945149593	640.5910988767331	328.63212764857286	-151.14501284165368	442.9752322810858	49.10815265221014	-53.025215662193474	208.0338485953298	32.62925972660235
568	2.835	-122.11237902506093	640.5411997701527	328.5317166059595	-151.2241728383376	442.99326741087424	48.9355219251819	-53.136762344819275	208.00430562730506	32.58875181673111
569	2.84	-122.21664192205264	640.4944312514599	328.4292003756069	-151.30798546040836	443.0163611646383	48.759278638622526	-53.2555497361702	207.97891458632157	32.546519492451125
570	2.845	-122.32566299552154	640.4508120972532	328.32460570795985	-151.39639726302528	443.0444777015374	48.57947197762134	-53.381455309890484	207.9576583281567	32.502705744575245
571	2.85	-122.43941500693224	640.410359199123	328.21796047425704	-151.4893518872854	443.0775767150001	48.396153000644546	-53.51434739698997	207.9405179885726	32.45746055806137
572	2.855	-122.55786861775773	640.3730875754873	328.1092936364195	-151.58679026157048	443.1156137938725	48.209374401442346	-53.654085581475385	207.92747338534448	32.41094053633557
573	2.86	-122.68099238261526	640.3390103872317	327.9986352156339	-151.68865080096575	443.1585407940676	48.01919026900106	-53.800521103895825	207.91850342508462	32.36330851132978
574	2.865	-122.80875274400204	640.3081389570663	327.88601625974707	-151.7948696038904	443.20630621892667	47.82565584672229	-53.953497270968256	207.9135865129919	32.31473314080262
575	2.87	-122.94111402868685	640.2804827924903	327.7714688095908	-151.90538064512856	443.2588556064808	47.62882729200786	-54.1128498695262	207.9127009636474	32.26538849450371
576	2.875	-123.07803844581052	640.2560496122506	327.6550258643599	-152.0201159645029	443.3161319217837	47.42876143742049	-54.27840758312076	207.91582541097154	32.215453630727495
577	2.88	-123.21948608674502	640.2348453761624	327.5367213461664	-152.13900585048856	443.3780759524788	47.22551555457757	-54.449992409695454	207.92293921546258	32.165112164784546
578	2.885	-123.36541492675941	640.2168743181483	327.41659006389455	-152.26197901812395	443.4446267057598	47.01914712191696	-54.62742007885487	207.93402286684653	32.114551830894314
579	2.89	-123.51578082853602	640.2021389823462	327.2946676764815	-152.38896278063618	443.51572180489563	46.809713597451946	-54.81050046735029	207.9490583802862	32.06396403897589
580	2.895	-123.67053754757869	640.1906402621183	327.17099065574934	-152.51988321425935	443.5912978835051	46.5972721976053	-54.999038011512965	207.96802968432115	32.013543427782615
581	2.9	-123.82963673955093	640.1823774417921	327.04559624891226	-152.6546653157895	443.6712909757865	46.381879683181424	-55.192832115475774	207.99092299874093	31.96348741579154
582	2.905	-123.99302796957892	640.177348240949	326.91852244088085	-152.79323315248251	443.7556369009432	46.16359215350003	-55.39167755413648	208.0177272006327	31.913995751222046
583	2.91	-124.16065872355091	640.1755488610733	326.78980791648564	-152.9355100039678	443.8442716400818	45.9424648496755	-55.59536486992911	208.04843417688744	31.86527006251841
584	2.915	-124.33247442144147	640.1769740343669	326.6594920227375	-153.08141849591368	443.93713170390566	45.71855196798273	-55.803680762583845	208.08303916149993	31.81751341058986
585	2.92	-124.50841843268576	640.1816170745254	326.52761473124013	-153.23088072524587	444.0341544895815	45.49190648420272	-56.016408471168944	208.12154105605447	31.77092984405879
586	2.925	-124.6884320936254	640.1894699292721	326.3942166008662	-153.38381837678375	444.1352786252133	45.262579989791114	-56.23332814782	208.16394273185279	31.725723958723766
587	2.93	-124.87245472704414	640.2005232344408	326.2593387408045	-153.54015283122172	444.24044430042704	45.03062254065792	-56.454217222671524	208.21025131220844	31.682100462399116
